<mxfile host="app.diagrams.net" modified="2023-06-13T10:17:20.296Z" agent="Mozilla/5.0 (Windows NT 10.0; Win64; x64) AppleWebKit/537.36 (KHTML, like Gecko) Chrome/114.0.0.0 Safari/537.36" etag="KAdlm0Smt828D9ExNlOT" version="21.3.2" type="github">
  <diagram name="第 1 页" id="ozhlEDh4OqDTrrgAJ7Wa">
    <mxGraphModel dx="3607" dy="976" grid="1" gridSize="10" guides="1" tooltips="1" connect="1" arrows="1" fold="1" page="1" pageScale="1" pageWidth="827" pageHeight="1169" math="0" shadow="0">
      <root>
        <mxCell id="0" />
        <mxCell id="1" parent="0" />
        <mxCell id="N430Aj534q1zeIAL79OQ-1" value="ReplicationData" style="swimlane;fontStyle=0;childLayout=stackLayout;horizontal=1;startSize=26;fillColor=none;horizontalStack=0;resizeParent=1;resizeParentMax=0;resizeLast=0;collapsible=1;marginBottom=0;whiteSpace=wrap;html=1;" vertex="1" parent="1">
          <mxGeometry x="440" y="407" width="190" height="78" as="geometry" />
        </mxCell>
        <mxCell id="N430Aj534q1zeIAL79OQ-2" value="EReplicationInfoGroup GroupID" style="text;strokeColor=none;fillColor=none;align=left;verticalAlign=top;spacingLeft=4;spacingRight=4;overflow=hidden;rotatable=0;points=[[0,0.5],[1,0.5]];portConstraint=eastwest;whiteSpace=wrap;html=1;" vertex="1" parent="N430Aj534q1zeIAL79OQ-1">
          <mxGeometry y="26" width="190" height="26" as="geometry" />
        </mxCell>
        <mxCell id="N430Aj534q1zeIAL79OQ-3" value="object Value" style="text;strokeColor=none;fillColor=none;align=left;verticalAlign=top;spacingLeft=4;spacingRight=4;overflow=hidden;rotatable=0;points=[[0,0.5],[1,0.5]];portConstraint=eastwest;whiteSpace=wrap;html=1;" vertex="1" parent="N430Aj534q1zeIAL79OQ-1">
          <mxGeometry y="52" width="190" height="26" as="geometry" />
        </mxCell>
        <mxCell id="N430Aj534q1zeIAL79OQ-25" style="edgeStyle=orthogonalEdgeStyle;rounded=0;orthogonalLoop=1;jettySize=auto;html=1;endArrow=diamondThin;endFill=0;" edge="1" parent="1" source="N430Aj534q1zeIAL79OQ-6" target="N430Aj534q1zeIAL79OQ-1">
          <mxGeometry relative="1" as="geometry" />
        </mxCell>
        <mxCell id="N430Aj534q1zeIAL79OQ-6" value="ReplicationDataPool" style="swimlane;fontStyle=1;align=center;verticalAlign=top;childLayout=stackLayout;horizontal=1;startSize=30;horizontalStack=0;resizeParent=1;resizeParentMax=0;resizeLast=0;collapsible=1;marginBottom=0;whiteSpace=wrap;html=1;" vertex="1" parent="1">
          <mxGeometry x="780" y="390" width="320" height="112" as="geometry" />
        </mxCell>
        <mxCell id="N430Aj534q1zeIAL79OQ-7" value="AddData(...)" style="text;strokeColor=none;fillColor=none;align=left;verticalAlign=top;spacingLeft=4;spacingRight=4;overflow=hidden;rotatable=0;points=[[0,0.5],[1,0.5]];portConstraint=eastwest;whiteSpace=wrap;html=1;" vertex="1" parent="N430Aj534q1zeIAL79OQ-6">
          <mxGeometry y="30" width="320" height="22" as="geometry" />
        </mxCell>
        <mxCell id="N430Aj534q1zeIAL79OQ-8" value="" style="line;strokeWidth=1;fillColor=none;align=left;verticalAlign=middle;spacingTop=-1;spacingLeft=3;spacingRight=3;rotatable=0;labelPosition=right;points=[];portConstraint=eastwest;strokeColor=inherit;" vertex="1" parent="N430Aj534q1zeIAL79OQ-6">
          <mxGeometry y="52" width="320" height="8" as="geometry" />
        </mxCell>
        <mxCell id="N430Aj534q1zeIAL79OQ-9" value="SyncReplicationData(FastBinaryReader reader)" style="text;strokeColor=none;fillColor=none;align=left;verticalAlign=top;spacingLeft=4;spacingRight=4;overflow=hidden;rotatable=0;points=[[0,0.5],[1,0.5]];portConstraint=eastwest;whiteSpace=wrap;html=1;" vertex="1" parent="N430Aj534q1zeIAL79OQ-6">
          <mxGeometry y="60" width="320" height="52" as="geometry" />
        </mxCell>
        <mxCell id="N430Aj534q1zeIAL79OQ-26" style="edgeStyle=orthogonalEdgeStyle;rounded=0;orthogonalLoop=1;jettySize=auto;html=1;endArrow=diamondThin;endFill=0;entryX=0;entryY=0.25;entryDx=0;entryDy=0;" edge="1" parent="1" source="N430Aj534q1zeIAL79OQ-10" target="N430Aj534q1zeIAL79OQ-19">
          <mxGeometry relative="1" as="geometry">
            <Array as="points">
              <mxPoint x="730" y="666" />
              <mxPoint x="730" y="622" />
            </Array>
          </mxGeometry>
        </mxCell>
        <mxCell id="N430Aj534q1zeIAL79OQ-10" value="ReplicationEntity" style="swimlane;fontStyle=1;align=center;verticalAlign=top;childLayout=stackLayout;horizontal=1;startSize=26;horizontalStack=0;resizeParent=1;resizeParentMax=0;resizeLast=0;collapsible=1;marginBottom=0;whiteSpace=wrap;html=1;" vertex="1" parent="1">
          <mxGeometry x="260" y="610" width="352.5" height="112" as="geometry" />
        </mxCell>
        <mxCell id="N430Aj534q1zeIAL79OQ-11" value="m_PRIDataPool" style="text;strokeColor=none;fillColor=none;align=left;verticalAlign=top;spacingLeft=4;spacingRight=4;overflow=hidden;rotatable=0;points=[[0,0.5],[1,0.5]];portConstraint=eastwest;whiteSpace=wrap;html=1;" vertex="1" parent="N430Aj534q1zeIAL79OQ-10">
          <mxGeometry y="26" width="352.5" height="26" as="geometry" />
        </mxCell>
        <mxCell id="N430Aj534q1zeIAL79OQ-12" value="" style="line;strokeWidth=1;fillColor=none;align=left;verticalAlign=middle;spacingTop=-1;spacingLeft=3;spacingRight=3;rotatable=0;labelPosition=right;points=[];portConstraint=eastwest;strokeColor=inherit;" vertex="1" parent="N430Aj534q1zeIAL79OQ-10">
          <mxGeometry y="52" width="352.5" height="8" as="geometry" />
        </mxCell>
        <mxCell id="N430Aj534q1zeIAL79OQ-13" value="OnSyncReplicationData(FastBinaryReader reader)" style="text;strokeColor=none;fillColor=none;align=left;verticalAlign=top;spacingLeft=4;spacingRight=4;overflow=hidden;rotatable=0;points=[[0,0.5],[1,0.5]];portConstraint=eastwest;whiteSpace=wrap;html=1;" vertex="1" parent="N430Aj534q1zeIAL79OQ-10">
          <mxGeometry y="60" width="352.5" height="26" as="geometry" />
        </mxCell>
        <mxCell id="N430Aj534q1zeIAL79OQ-28" value="OnReplicationBind(uint replicationID)" style="text;strokeColor=none;fillColor=none;align=left;verticalAlign=top;spacingLeft=4;spacingRight=4;overflow=hidden;rotatable=0;points=[[0,0.5],[1,0.5]];portConstraint=eastwest;whiteSpace=wrap;html=1;" vertex="1" parent="N430Aj534q1zeIAL79OQ-10">
          <mxGeometry y="86" width="352.5" height="26" as="geometry" />
        </mxCell>
        <mxCell id="N430Aj534q1zeIAL79OQ-14" value="MultiplePlayerGameMessageHandler" style="swimlane;fontStyle=0;childLayout=stackLayout;horizontal=1;startSize=26;fillColor=none;horizontalStack=0;resizeParent=1;resizeParentMax=0;resizeLast=0;collapsible=1;marginBottom=0;whiteSpace=wrap;html=1;" vertex="1" parent="1">
          <mxGeometry x="-90" y="644" width="270" height="78" as="geometry" />
        </mxCell>
        <mxCell id="N430Aj534q1zeIAL79OQ-15" value="OnMsgSyncPRIData(FastBinaryReader reader)" style="text;strokeColor=none;fillColor=none;align=left;verticalAlign=top;spacingLeft=4;spacingRight=4;overflow=hidden;rotatable=0;points=[[0,0.5],[1,0.5]];portConstraint=eastwest;whiteSpace=wrap;html=1;" vertex="1" parent="N430Aj534q1zeIAL79OQ-14">
          <mxGeometry y="26" width="270" height="26" as="geometry" />
        </mxCell>
        <mxCell id="N430Aj534q1zeIAL79OQ-47" value="OnMsgSyncGRIData(FastBinaryReader reader)" style="text;strokeColor=none;fillColor=none;align=left;verticalAlign=top;spacingLeft=4;spacingRight=4;overflow=hidden;rotatable=0;points=[[0,0.5],[1,0.5]];portConstraint=eastwest;whiteSpace=wrap;html=1;" vertex="1" parent="N430Aj534q1zeIAL79OQ-14">
          <mxGeometry y="52" width="270" height="26" as="geometry" />
        </mxCell>
        <mxCell id="N430Aj534q1zeIAL79OQ-18" style="edgeStyle=orthogonalEdgeStyle;rounded=0;orthogonalLoop=1;jettySize=auto;html=1;entryX=0;entryY=0.5;entryDx=0;entryDy=0;" edge="1" parent="1" source="N430Aj534q1zeIAL79OQ-15" target="N430Aj534q1zeIAL79OQ-13">
          <mxGeometry relative="1" as="geometry" />
        </mxCell>
        <mxCell id="N430Aj534q1zeIAL79OQ-24" style="edgeStyle=orthogonalEdgeStyle;rounded=0;orthogonalLoop=1;jettySize=auto;html=1;endArrow=block;endFill=0;" edge="1" parent="1" source="N430Aj534q1zeIAL79OQ-19" target="N430Aj534q1zeIAL79OQ-6">
          <mxGeometry relative="1" as="geometry" />
        </mxCell>
        <mxCell id="N430Aj534q1zeIAL79OQ-19" value="PRIDataPool" style="swimlane;fontStyle=1;align=center;verticalAlign=top;childLayout=stackLayout;horizontal=1;startSize=26;horizontalStack=0;resizeParent=1;resizeParentMax=0;resizeLast=0;collapsible=1;marginBottom=0;whiteSpace=wrap;html=1;" vertex="1" parent="1">
          <mxGeometry x="790" y="600" width="160" height="86" as="geometry" />
        </mxCell>
        <mxCell id="N430Aj534q1zeIAL79OQ-20" value="AddData(...)" style="text;strokeColor=none;fillColor=none;align=left;verticalAlign=top;spacingLeft=4;spacingRight=4;overflow=hidden;rotatable=0;points=[[0,0.5],[1,0.5]];portConstraint=eastwest;whiteSpace=wrap;html=1;" vertex="1" parent="N430Aj534q1zeIAL79OQ-19">
          <mxGeometry y="26" width="160" height="26" as="geometry" />
        </mxCell>
        <mxCell id="N430Aj534q1zeIAL79OQ-21" value="" style="line;strokeWidth=1;fillColor=none;align=left;verticalAlign=middle;spacingTop=-1;spacingLeft=3;spacingRight=3;rotatable=0;labelPosition=right;points=[];portConstraint=eastwest;strokeColor=inherit;" vertex="1" parent="N430Aj534q1zeIAL79OQ-19">
          <mxGeometry y="52" width="160" height="8" as="geometry" />
        </mxCell>
        <mxCell id="N430Aj534q1zeIAL79OQ-22" value="+ method(type): type" style="text;strokeColor=none;fillColor=none;align=left;verticalAlign=top;spacingLeft=4;spacingRight=4;overflow=hidden;rotatable=0;points=[[0,0.5],[1,0.5]];portConstraint=eastwest;whiteSpace=wrap;html=1;" vertex="1" parent="N430Aj534q1zeIAL79OQ-19">
          <mxGeometry y="60" width="160" height="26" as="geometry" />
        </mxCell>
        <mxCell id="N430Aj534q1zeIAL79OQ-27" style="edgeStyle=orthogonalEdgeStyle;rounded=0;orthogonalLoop=1;jettySize=auto;html=1;entryX=0.007;entryY=0.224;entryDx=0;entryDy=0;entryPerimeter=0;" edge="1" parent="1" source="N430Aj534q1zeIAL79OQ-13" target="N430Aj534q1zeIAL79OQ-9">
          <mxGeometry relative="1" as="geometry" />
        </mxCell>
        <mxCell id="N430Aj534q1zeIAL79OQ-31" style="edgeStyle=orthogonalEdgeStyle;rounded=0;orthogonalLoop=1;jettySize=auto;html=1;exitX=1;exitY=0.5;exitDx=0;exitDy=0;entryX=0;entryY=0.5;entryDx=0;entryDy=0;" edge="1" parent="1" source="N430Aj534q1zeIAL79OQ-11" target="N430Aj534q1zeIAL79OQ-20">
          <mxGeometry relative="1" as="geometry">
            <Array as="points">
              <mxPoint x="770" y="649" />
              <mxPoint x="770" y="639" />
            </Array>
          </mxGeometry>
        </mxCell>
        <mxCell id="N430Aj534q1zeIAL79OQ-36" style="edgeStyle=orthogonalEdgeStyle;rounded=0;orthogonalLoop=1;jettySize=auto;html=1;entryX=0.647;entryY=0.981;entryDx=0;entryDy=0;entryPerimeter=0;endArrow=block;endFill=0;" edge="1" parent="1" source="N430Aj534q1zeIAL79OQ-32" target="N430Aj534q1zeIAL79OQ-9">
          <mxGeometry relative="1" as="geometry" />
        </mxCell>
        <mxCell id="N430Aj534q1zeIAL79OQ-32" value="GRIDataPool" style="swimlane;fontStyle=1;align=center;verticalAlign=top;childLayout=stackLayout;horizontal=1;startSize=26;horizontalStack=0;resizeParent=1;resizeParentMax=0;resizeLast=0;collapsible=1;marginBottom=0;whiteSpace=wrap;html=1;" vertex="1" parent="1">
          <mxGeometry x="1020" y="600" width="160" height="86" as="geometry" />
        </mxCell>
        <mxCell id="N430Aj534q1zeIAL79OQ-33" value="AddData(...)" style="text;strokeColor=none;fillColor=none;align=left;verticalAlign=top;spacingLeft=4;spacingRight=4;overflow=hidden;rotatable=0;points=[[0,0.5],[1,0.5]];portConstraint=eastwest;whiteSpace=wrap;html=1;" vertex="1" parent="N430Aj534q1zeIAL79OQ-32">
          <mxGeometry y="26" width="160" height="26" as="geometry" />
        </mxCell>
        <mxCell id="N430Aj534q1zeIAL79OQ-34" value="" style="line;strokeWidth=1;fillColor=none;align=left;verticalAlign=middle;spacingTop=-1;spacingLeft=3;spacingRight=3;rotatable=0;labelPosition=right;points=[];portConstraint=eastwest;strokeColor=inherit;" vertex="1" parent="N430Aj534q1zeIAL79OQ-32">
          <mxGeometry y="52" width="160" height="8" as="geometry" />
        </mxCell>
        <mxCell id="N430Aj534q1zeIAL79OQ-35" value="+ method(type): type" style="text;strokeColor=none;fillColor=none;align=left;verticalAlign=top;spacingLeft=4;spacingRight=4;overflow=hidden;rotatable=0;points=[[0,0.5],[1,0.5]];portConstraint=eastwest;whiteSpace=wrap;html=1;" vertex="1" parent="N430Aj534q1zeIAL79OQ-32">
          <mxGeometry y="60" width="160" height="26" as="geometry" />
        </mxCell>
        <mxCell id="N430Aj534q1zeIAL79OQ-44" style="edgeStyle=orthogonalEdgeStyle;rounded=0;orthogonalLoop=1;jettySize=auto;html=1;entryX=-0.006;entryY=0.095;entryDx=0;entryDy=0;entryPerimeter=0;endArrow=diamondThin;endFill=0;" edge="1" parent="1" source="N430Aj534q1zeIAL79OQ-37" target="N430Aj534q1zeIAL79OQ-32">
          <mxGeometry relative="1" as="geometry">
            <Array as="points">
              <mxPoint x="980" y="810" />
              <mxPoint x="980" y="608" />
            </Array>
          </mxGeometry>
        </mxCell>
        <mxCell id="N430Aj534q1zeIAL79OQ-37" value="MatchGame" style="swimlane;fontStyle=0;childLayout=stackLayout;horizontal=1;startSize=26;fillColor=none;horizontalStack=0;resizeParent=1;resizeParentMax=0;resizeLast=0;collapsible=1;marginBottom=0;whiteSpace=wrap;html=1;" vertex="1" parent="1">
          <mxGeometry x="280" y="790" width="316" height="78" as="geometry" />
        </mxCell>
        <mxCell id="N430Aj534q1zeIAL79OQ-38" value="m_GRIDataPool" style="text;strokeColor=none;fillColor=none;align=left;verticalAlign=top;spacingLeft=4;spacingRight=4;overflow=hidden;rotatable=0;points=[[0,0.5],[1,0.5]];portConstraint=eastwest;whiteSpace=wrap;html=1;" vertex="1" parent="N430Aj534q1zeIAL79OQ-37">
          <mxGeometry y="26" width="316" height="26" as="geometry" />
        </mxCell>
        <mxCell id="N430Aj534q1zeIAL79OQ-39" value="OnSyncReplicationData(FastBinaryReader reader)" style="text;strokeColor=none;fillColor=none;align=left;verticalAlign=top;spacingLeft=4;spacingRight=4;overflow=hidden;rotatable=0;points=[[0,0.5],[1,0.5]];portConstraint=eastwest;whiteSpace=wrap;html=1;" vertex="1" parent="N430Aj534q1zeIAL79OQ-37">
          <mxGeometry y="52" width="316" height="26" as="geometry" />
        </mxCell>
        <mxCell id="N430Aj534q1zeIAL79OQ-45" style="edgeStyle=orthogonalEdgeStyle;rounded=0;orthogonalLoop=1;jettySize=auto;html=1;entryX=0;entryY=0.5;entryDx=0;entryDy=0;" edge="1" parent="1" source="N430Aj534q1zeIAL79OQ-38" target="N430Aj534q1zeIAL79OQ-33">
          <mxGeometry relative="1" as="geometry">
            <Array as="points">
              <mxPoint x="1000" y="839" />
              <mxPoint x="1000" y="639" />
            </Array>
          </mxGeometry>
        </mxCell>
        <mxCell id="N430Aj534q1zeIAL79OQ-46" style="edgeStyle=orthogonalEdgeStyle;rounded=0;orthogonalLoop=1;jettySize=auto;html=1;entryX=0;entryY=0.192;entryDx=0;entryDy=0;entryPerimeter=0;" edge="1" parent="1" source="N430Aj534q1zeIAL79OQ-39" target="N430Aj534q1zeIAL79OQ-9">
          <mxGeometry relative="1" as="geometry">
            <Array as="points">
              <mxPoint x="650" y="855" />
              <mxPoint x="650" y="460" />
            </Array>
          </mxGeometry>
        </mxCell>
        <mxCell id="N430Aj534q1zeIAL79OQ-48" style="edgeStyle=orthogonalEdgeStyle;rounded=0;orthogonalLoop=1;jettySize=auto;html=1;entryX=0;entryY=0.5;entryDx=0;entryDy=0;" edge="1" parent="1" source="N430Aj534q1zeIAL79OQ-47" target="N430Aj534q1zeIAL79OQ-39">
          <mxGeometry relative="1" as="geometry" />
        </mxCell>
        <mxCell id="N430Aj534q1zeIAL79OQ-49" value="" style="endArrow=none;dashed=1;html=1;rounded=0;" edge="1" parent="1">
          <mxGeometry width="50" height="50" relative="1" as="geometry">
            <mxPoint x="-1403.9999389648438" y="300" as="sourcePoint" />
            <mxPoint x="1420" y="310" as="targetPoint" />
          </mxGeometry>
        </mxCell>
        <mxCell id="N430Aj534q1zeIAL79OQ-50" value="每个ReplicationEntity 实例化一个PRIDataPool,创建时通过AddData注册需要同步的属性。属性变化时通过OnSyncReplicationData更新对应属性的值。&lt;br&gt;每个MatchGame实例化一个GRIDataPool，创建时通过AddData注册需要同步的属性。属性同步同上。&lt;br&gt;通过FastBinaryReader解析下发的数据，数据的结构是类型+id+值为一组" style="html=1;whiteSpace=wrap;" vertex="1" parent="1">
          <mxGeometry x="120" y="130" width="990" height="120" as="geometry" />
        </mxCell>
        <mxCell id="N430Aj534q1zeIAL79OQ-51" value="" style="endArrow=none;dashed=1;html=1;rounded=0;" edge="1" parent="1">
          <mxGeometry width="50" height="50" relative="1" as="geometry">
            <mxPoint x="-120" y="930" as="sourcePoint" />
            <mxPoint x="1430" y="930" as="targetPoint" />
          </mxGeometry>
        </mxCell>
        <mxCell id="N430Aj534q1zeIAL79OQ-52" value="Client" style="text;html=1;strokeColor=none;fillColor=none;align=center;verticalAlign=middle;whiteSpace=wrap;rounded=0;" vertex="1" parent="1">
          <mxGeometry x="612.5" y="310" width="60" height="30" as="geometry" />
        </mxCell>
        <mxCell id="N430Aj534q1zeIAL79OQ-53" value="" style="endArrow=none;dashed=1;html=1;rounded=0;" edge="1" parent="1">
          <mxGeometry width="50" height="50" relative="1" as="geometry">
            <mxPoint x="-110" y="930" as="sourcePoint" />
            <mxPoint x="-110" y="300" as="targetPoint" />
          </mxGeometry>
        </mxCell>
        <mxCell id="N430Aj534q1zeIAL79OQ-54" value="Server" style="text;html=1;strokeColor=none;fillColor=none;align=center;verticalAlign=middle;whiteSpace=wrap;rounded=0;" vertex="1" parent="1">
          <mxGeometry x="-860" y="310" width="60" height="30" as="geometry" />
        </mxCell>
        <mxCell id="N430Aj534q1zeIAL79OQ-55" value="FastBinaryReader" style="swimlane;fontStyle=0;childLayout=stackLayout;horizontal=1;startSize=26;fillColor=none;horizontalStack=0;resizeParent=1;resizeParentMax=0;resizeLast=0;collapsible=1;marginBottom=0;whiteSpace=wrap;html=1;" vertex="1" parent="1">
          <mxGeometry x="1290" y="390" width="140" height="104" as="geometry" />
        </mxCell>
        <mxCell id="N430Aj534q1zeIAL79OQ-56" value="+ field: type" style="text;strokeColor=none;fillColor=none;align=left;verticalAlign=top;spacingLeft=4;spacingRight=4;overflow=hidden;rotatable=0;points=[[0,0.5],[1,0.5]];portConstraint=eastwest;whiteSpace=wrap;html=1;" vertex="1" parent="N430Aj534q1zeIAL79OQ-55">
          <mxGeometry y="26" width="140" height="26" as="geometry" />
        </mxCell>
        <mxCell id="N430Aj534q1zeIAL79OQ-57" value="+ field: type" style="text;strokeColor=none;fillColor=none;align=left;verticalAlign=top;spacingLeft=4;spacingRight=4;overflow=hidden;rotatable=0;points=[[0,0.5],[1,0.5]];portConstraint=eastwest;whiteSpace=wrap;html=1;" vertex="1" parent="N430Aj534q1zeIAL79OQ-55">
          <mxGeometry y="52" width="140" height="26" as="geometry" />
        </mxCell>
        <mxCell id="N430Aj534q1zeIAL79OQ-58" value="+ field: type" style="text;strokeColor=none;fillColor=none;align=left;verticalAlign=top;spacingLeft=4;spacingRight=4;overflow=hidden;rotatable=0;points=[[0,0.5],[1,0.5]];portConstraint=eastwest;whiteSpace=wrap;html=1;" vertex="1" parent="N430Aj534q1zeIAL79OQ-55">
          <mxGeometry y="78" width="140" height="26" as="geometry" />
        </mxCell>
        <mxCell id="N430Aj534q1zeIAL79OQ-59" value="Match" style="swimlane;fontStyle=0;childLayout=stackLayout;horizontal=1;startSize=26;fillColor=none;horizontalStack=0;resizeParent=1;resizeParentMax=0;resizeLast=0;collapsible=1;marginBottom=0;whiteSpace=wrap;html=1;" vertex="1" parent="1">
          <mxGeometry x="-920" y="387" width="150" height="70" as="geometry" />
        </mxCell>
        <mxCell id="N430Aj534q1zeIAL79OQ-60" value="&lt;pre style=&quot;background-color:#2b2b2b;color:#a9b7c6;font-family:&#39;JetBrains Mono&#39;,monospace;font-size:9.8pt;&quot;&gt;SendPRI()&lt;/pre&gt;" style="text;strokeColor=none;fillColor=none;align=left;verticalAlign=top;spacingLeft=4;spacingRight=4;overflow=hidden;rotatable=0;points=[[0,0.5],[1,0.5]];portConstraint=eastwest;whiteSpace=wrap;html=1;" vertex="1" parent="N430Aj534q1zeIAL79OQ-59">
          <mxGeometry y="26" width="150" height="44" as="geometry" />
        </mxCell>
        <mxCell id="N430Aj534q1zeIAL79OQ-63" value="User" style="swimlane;fontStyle=0;childLayout=stackLayout;horizontal=1;startSize=26;fillColor=none;horizontalStack=0;resizeParent=1;resizeParentMax=0;resizeLast=0;collapsible=1;marginBottom=0;whiteSpace=wrap;html=1;" vertex="1" parent="1">
          <mxGeometry x="-700" y="381" width="140" height="80" as="geometry" />
        </mxCell>
        <mxCell id="N430Aj534q1zeIAL79OQ-64" value="&lt;pre style=&quot;background-color: rgb(43, 43, 43); color: rgb(169, 183, 198); font-family: &amp;quot;JetBrains Mono&amp;quot;, monospace; font-size: 9.8pt;&quot;&gt;SendBytes&lt;/pre&gt;" style="text;strokeColor=none;fillColor=none;align=left;verticalAlign=top;spacingLeft=4;spacingRight=4;overflow=hidden;rotatable=0;points=[[0,0.5],[1,0.5]];portConstraint=eastwest;whiteSpace=wrap;html=1;" vertex="1" parent="N430Aj534q1zeIAL79OQ-63">
          <mxGeometry y="26" width="140" height="54" as="geometry" />
        </mxCell>
        <mxCell id="N430Aj534q1zeIAL79OQ-67" style="edgeStyle=orthogonalEdgeStyle;rounded=0;orthogonalLoop=1;jettySize=auto;html=1;entryX=0;entryY=0.5;entryDx=0;entryDy=0;" edge="1" parent="1" source="N430Aj534q1zeIAL79OQ-64" target="N430Aj534q1zeIAL79OQ-15">
          <mxGeometry relative="1" as="geometry" />
        </mxCell>
        <mxCell id="N430Aj534q1zeIAL79OQ-68" value="&lt;pre style=&quot;background-color:#2b2b2b;color:#a9b7c6;font-family:&#39;JetBrains Mono&#39;,monospace;font-size:9.8pt;&quot;&gt;RUDP_VAR_SYNC_PRI_DATA&lt;/pre&gt;" style="text;html=1;strokeColor=none;fillColor=none;align=center;verticalAlign=middle;whiteSpace=wrap;rounded=0;" vertex="1" parent="1">
          <mxGeometry x="-460" y="406" width="60" height="30" as="geometry" />
        </mxCell>
        <mxCell id="N430Aj534q1zeIAL79OQ-69" style="edgeStyle=orthogonalEdgeStyle;rounded=0;orthogonalLoop=1;jettySize=auto;html=1;exitX=1;exitY=0.5;exitDx=0;exitDy=0;entryX=0;entryY=0.5;entryDx=0;entryDy=0;" edge="1" parent="1" source="N430Aj534q1zeIAL79OQ-60" target="N430Aj534q1zeIAL79OQ-64">
          <mxGeometry relative="1" as="geometry" />
        </mxCell>
        <mxCell id="N430Aj534q1zeIAL79OQ-70" value="&lt;pre style=&quot;background-color:#2b2b2b;color:#a9b7c6;font-family:&#39;JetBrains Mono&#39;,monospace;font-size:9.8pt;&quot;&gt;ReplicationEntity&lt;/pre&gt;" style="swimlane;fontStyle=0;childLayout=stackLayout;horizontal=1;startSize=26;fillColor=none;horizontalStack=0;resizeParent=1;resizeParentMax=0;resizeLast=0;collapsible=1;marginBottom=0;whiteSpace=wrap;html=1;" vertex="1" parent="1">
          <mxGeometry x="-970" y="613" width="250" height="220" as="geometry" />
        </mxCell>
        <mxCell id="N430Aj534q1zeIAL79OQ-71" value="&lt;pre style=&quot;background-color:#2b2b2b;color:#a9b7c6;font-family:&#39;JetBrains Mono&#39;,monospace;font-size:9.8pt;&quot;&gt;GetRelationshipWith(user &lt;span style=&quot;color:#6fafbd;&quot;&gt;IUser&lt;/span&gt;)&lt;/pre&gt;" style="text;strokeColor=none;fillColor=none;align=left;verticalAlign=top;spacingLeft=4;spacingRight=4;overflow=hidden;rotatable=0;points=[[0,0.5],[1,0.5]];portConstraint=eastwest;whiteSpace=wrap;html=1;" vertex="1" parent="N430Aj534q1zeIAL79OQ-70">
          <mxGeometry y="26" width="250" height="44" as="geometry" />
        </mxCell>
        <mxCell id="N430Aj534q1zeIAL79OQ-74" value="&lt;pre style=&quot;background-color:#2b2b2b;color:#a9b7c6;font-family:&#39;JetBrains Mono&#39;,monospace;font-size:9.8pt;&quot;&gt;&lt;pre style=&quot;font-family: &amp;quot;JetBrains Mono&amp;quot;, monospace; font-size: 9.8pt;&quot;&gt;GetDirtyData(filter &lt;span style=&quot;color:#6fafbd;&quot;&gt;ERepFilter&lt;/span&gt;)&lt;/pre&gt;&lt;/pre&gt;" style="text;strokeColor=none;fillColor=none;align=left;verticalAlign=top;spacingLeft=4;spacingRight=4;overflow=hidden;rotatable=0;points=[[0,0.5],[1,0.5]];portConstraint=eastwest;whiteSpace=wrap;html=1;" vertex="1" parent="N430Aj534q1zeIAL79OQ-70">
          <mxGeometry y="70" width="250" height="50" as="geometry" />
        </mxCell>
        <mxCell id="N430Aj534q1zeIAL79OQ-93" value="&lt;pre style=&quot;background-color:#2b2b2b;color:#a9b7c6;font-family:&#39;JetBrains Mono&#39;,monospace;font-size:9.8pt;&quot;&gt;&lt;pre style=&quot;font-family: &amp;quot;JetBrains Mono&amp;quot;, monospace; font-size: 9.8pt;&quot;&gt;PrepareDirtyData(...)&lt;/pre&gt;&lt;/pre&gt;" style="text;strokeColor=none;fillColor=none;align=left;verticalAlign=top;spacingLeft=4;spacingRight=4;overflow=hidden;rotatable=0;points=[[0,0.5],[1,0.5]];portConstraint=eastwest;whiteSpace=wrap;html=1;" vertex="1" parent="N430Aj534q1zeIAL79OQ-70">
          <mxGeometry y="120" width="250" height="50" as="geometry" />
        </mxCell>
        <mxCell id="N430Aj534q1zeIAL79OQ-100" value="&lt;pre style=&quot;background-color:#2b2b2b;color:#a9b7c6;font-family:&#39;JetBrains Mono&#39;,monospace;font-size:9.8pt;&quot;&gt;&lt;pre style=&quot;font-family: &amp;quot;JetBrains Mono&amp;quot;, monospace; font-size: 9.8pt;&quot;&gt;replicationDataPool *PRIDataPool&lt;/pre&gt;&lt;/pre&gt;" style="text;strokeColor=none;fillColor=none;align=left;verticalAlign=top;spacingLeft=4;spacingRight=4;overflow=hidden;rotatable=0;points=[[0,0.5],[1,0.5]];portConstraint=eastwest;whiteSpace=wrap;html=1;" vertex="1" parent="N430Aj534q1zeIAL79OQ-70">
          <mxGeometry y="170" width="250" height="50" as="geometry" />
        </mxCell>
        <mxCell id="N430Aj534q1zeIAL79OQ-75" style="edgeStyle=orthogonalEdgeStyle;rounded=0;orthogonalLoop=1;jettySize=auto;html=1;entryX=0.5;entryY=0;entryDx=0;entryDy=0;endArrow=diamondThin;endFill=0;" edge="1" parent="1" source="N430Aj534q1zeIAL79OQ-60" target="N430Aj534q1zeIAL79OQ-70">
          <mxGeometry relative="1" as="geometry">
            <Array as="points">
              <mxPoint x="-845" y="490" />
              <mxPoint x="-845" y="490" />
            </Array>
          </mxGeometry>
        </mxCell>
        <mxCell id="N430Aj534q1zeIAL79OQ-79" style="edgeStyle=orthogonalEdgeStyle;rounded=0;orthogonalLoop=1;jettySize=auto;html=1;endArrow=block;endFill=0;" edge="1" parent="1" source="N430Aj534q1zeIAL79OQ-76" target="N430Aj534q1zeIAL79OQ-70">
          <mxGeometry relative="1" as="geometry" />
        </mxCell>
        <mxCell id="N430Aj534q1zeIAL79OQ-76" value="&lt;pre style=&quot;background-color:#2b2b2b;color:#a9b7c6;font-family:&#39;JetBrains Mono&#39;,monospace;font-size:9.8pt;&quot;&gt;&lt;pre style=&quot;font-family: &amp;quot;JetBrains Mono&amp;quot;, monospace; font-size: 9.8pt;&quot;&gt;MatchHumanPlayer&lt;/pre&gt;&lt;/pre&gt;" style="swimlane;fontStyle=0;childLayout=stackLayout;horizontal=1;startSize=26;fillColor=none;horizontalStack=0;resizeParent=1;resizeParentMax=0;resizeLast=0;collapsible=1;marginBottom=0;whiteSpace=wrap;html=1;" vertex="1" parent="1">
          <mxGeometry x="-970" y="890" width="250" height="80" as="geometry" />
        </mxCell>
        <mxCell id="N430Aj534q1zeIAL79OQ-77" value="&lt;pre style=&quot;background-color:#2b2b2b;color:#a9b7c6;font-family:&#39;JetBrains Mono&#39;,monospace;font-size:9.8pt;&quot;&gt;GetRelationshipWith(user &lt;span style=&quot;color:#6fafbd;&quot;&gt;IUser&lt;/span&gt;)&lt;/pre&gt;" style="text;strokeColor=none;fillColor=none;align=left;verticalAlign=top;spacingLeft=4;spacingRight=4;overflow=hidden;rotatable=0;points=[[0,0.5],[1,0.5]];portConstraint=eastwest;whiteSpace=wrap;html=1;" vertex="1" parent="N430Aj534q1zeIAL79OQ-76">
          <mxGeometry y="26" width="250" height="54" as="geometry" />
        </mxCell>
        <mxCell id="N430Aj534q1zeIAL79OQ-91" style="edgeStyle=orthogonalEdgeStyle;rounded=0;orthogonalLoop=1;jettySize=auto;html=1;endArrow=block;endFill=0;" edge="1" parent="1" source="N430Aj534q1zeIAL79OQ-80" target="N430Aj534q1zeIAL79OQ-89">
          <mxGeometry relative="1" as="geometry" />
        </mxCell>
        <mxCell id="N430Aj534q1zeIAL79OQ-80" value="&lt;pre style=&quot;background-color:#2b2b2b;color:#a9b7c6;font-family:&#39;JetBrains Mono&#39;,monospace;font-size:9.8pt;&quot;&gt;ReplicationDataPool&lt;/pre&gt;" style="swimlane;fontStyle=0;childLayout=stackLayout;horizontal=1;startSize=26;fillColor=none;horizontalStack=0;resizeParent=1;resizeParentMax=0;resizeLast=0;collapsible=1;marginBottom=0;whiteSpace=wrap;html=1;" vertex="1" parent="1">
          <mxGeometry x="-1210" y="610" width="140" height="70" as="geometry" />
        </mxCell>
        <mxCell id="N430Aj534q1zeIAL79OQ-81" value="&lt;pre style=&quot;background-color:#2b2b2b;color:#a9b7c6;font-family:&#39;JetBrains Mono&#39;,monospace;font-size:9.8pt;&quot;&gt;&lt;pre style=&quot;font-family: &amp;quot;JetBrains Mono&amp;quot;, monospace; font-size: 9.8pt;&quot;&gt;AddData(...)&lt;/pre&gt;&lt;/pre&gt;" style="text;strokeColor=none;fillColor=none;align=left;verticalAlign=top;spacingLeft=4;spacingRight=4;overflow=hidden;rotatable=0;points=[[0,0.5],[1,0.5]];portConstraint=eastwest;whiteSpace=wrap;html=1;" vertex="1" parent="N430Aj534q1zeIAL79OQ-80">
          <mxGeometry y="26" width="140" height="44" as="geometry" />
        </mxCell>
        <mxCell id="N430Aj534q1zeIAL79OQ-88" style="edgeStyle=orthogonalEdgeStyle;rounded=0;orthogonalLoop=1;jettySize=auto;html=1;endArrow=block;endFill=0;" edge="1" parent="1" source="N430Aj534q1zeIAL79OQ-84" target="N430Aj534q1zeIAL79OQ-80">
          <mxGeometry relative="1" as="geometry" />
        </mxCell>
        <mxCell id="N430Aj534q1zeIAL79OQ-84" value="&lt;pre style=&quot;background-color:#2b2b2b;color:#a9b7c6;font-family:&#39;JetBrains Mono&#39;,monospace;font-size:9.8pt;&quot;&gt;PRIDataPool&lt;/pre&gt;" style="swimlane;fontStyle=0;childLayout=stackLayout;horizontal=1;startSize=26;fillColor=none;horizontalStack=0;resizeParent=1;resizeParentMax=0;resizeLast=0;collapsible=1;marginBottom=0;whiteSpace=wrap;html=1;" vertex="1" parent="1">
          <mxGeometry x="-1210" y="732" width="140" height="104" as="geometry" />
        </mxCell>
        <mxCell id="N430Aj534q1zeIAL79OQ-85" value="+ field: type" style="text;strokeColor=none;fillColor=none;align=left;verticalAlign=top;spacingLeft=4;spacingRight=4;overflow=hidden;rotatable=0;points=[[0,0.5],[1,0.5]];portConstraint=eastwest;whiteSpace=wrap;html=1;" vertex="1" parent="N430Aj534q1zeIAL79OQ-84">
          <mxGeometry y="26" width="140" height="26" as="geometry" />
        </mxCell>
        <mxCell id="N430Aj534q1zeIAL79OQ-86" value="+ field: type" style="text;strokeColor=none;fillColor=none;align=left;verticalAlign=top;spacingLeft=4;spacingRight=4;overflow=hidden;rotatable=0;points=[[0,0.5],[1,0.5]];portConstraint=eastwest;whiteSpace=wrap;html=1;" vertex="1" parent="N430Aj534q1zeIAL79OQ-84">
          <mxGeometry y="52" width="140" height="26" as="geometry" />
        </mxCell>
        <mxCell id="N430Aj534q1zeIAL79OQ-87" value="+ field: type" style="text;strokeColor=none;fillColor=none;align=left;verticalAlign=top;spacingLeft=4;spacingRight=4;overflow=hidden;rotatable=0;points=[[0,0.5],[1,0.5]];portConstraint=eastwest;whiteSpace=wrap;html=1;" vertex="1" parent="N430Aj534q1zeIAL79OQ-84">
          <mxGeometry y="78" width="140" height="26" as="geometry" />
        </mxCell>
        <mxCell id="N430Aj534q1zeIAL79OQ-89" value="&lt;pre style=&quot;background-color:#2b2b2b;color:#a9b7c6;font-family:&#39;JetBrains Mono&#39;,monospace;font-size:9.8pt;&quot;&gt;&lt;pre style=&quot;font-family: &amp;quot;JetBrains Mono&amp;quot;, monospace; font-size: 9.8pt;&quot;&gt;BaseReplicationDataPool&lt;/pre&gt;&lt;/pre&gt;" style="swimlane;fontStyle=0;childLayout=stackLayout;horizontal=1;startSize=26;fillColor=none;horizontalStack=0;resizeParent=1;resizeParentMax=0;resizeLast=0;collapsible=1;marginBottom=0;whiteSpace=wrap;html=1;" vertex="1" parent="1">
          <mxGeometry x="-1257.5" y="494" width="235" height="80" as="geometry" />
        </mxCell>
        <mxCell id="N430Aj534q1zeIAL79OQ-90" value="&lt;pre style=&quot;background-color:#2b2b2b;color:#a9b7c6;font-family:&#39;JetBrains Mono&#39;,monospace;font-size:9.8pt;&quot;&gt;GetDirtyData(filter &lt;span style=&quot;color:#6fafbd;&quot;&gt;ERepFilter&lt;/span&gt;)&lt;/pre&gt;" style="text;strokeColor=none;fillColor=none;align=left;verticalAlign=top;spacingLeft=4;spacingRight=4;overflow=hidden;rotatable=0;points=[[0,0.5],[1,0.5]];portConstraint=eastwest;whiteSpace=wrap;html=1;" vertex="1" parent="N430Aj534q1zeIAL79OQ-89">
          <mxGeometry y="26" width="235" height="54" as="geometry" />
        </mxCell>
        <mxCell id="N430Aj534q1zeIAL79OQ-95" value="&lt;pre style=&quot;background-color:#2b2b2b;color:#a9b7c6;font-family:&#39;JetBrains Mono&#39;,monospace;font-size:9.8pt;&quot;&gt;ReplicationDataPool.AddData()注册需要同步的属性&lt;/pre&gt;每个Entity里的属性发生变化时更新脏数据，Match里会将脏数据同步给关联的实例" style="text;html=1;strokeColor=none;fillColor=none;align=center;verticalAlign=middle;whiteSpace=wrap;rounded=0;" vertex="1" parent="1">
          <mxGeometry x="-970" y="120" width="430" height="60" as="geometry" />
        </mxCell>
        <mxCell id="N430Aj534q1zeIAL79OQ-101" style="edgeStyle=orthogonalEdgeStyle;rounded=0;orthogonalLoop=1;jettySize=auto;html=1;entryX=1.014;entryY=-0.212;entryDx=0;entryDy=0;entryPerimeter=0;endArrow=diamondThin;endFill=0;" edge="1" parent="1" source="N430Aj534q1zeIAL79OQ-100" target="N430Aj534q1zeIAL79OQ-85">
          <mxGeometry relative="1" as="geometry" />
        </mxCell>
        <mxCell id="N430Aj534q1zeIAL79OQ-102" value="3p 影子追随算法同步位置朝向" style="text;html=1;strokeColor=none;fillColor=none;align=center;verticalAlign=middle;whiteSpace=wrap;rounded=0;" vertex="1" parent="1">
          <mxGeometry x="-940" y="1150" width="380" height="40" as="geometry" />
        </mxCell>
      </root>
    </mxGraphModel>
  </diagram>
</mxfile>
